<?xml version="1.0" encoding="utf-8"?>
<!-- Generator: Adobe Illustrator 18.1.0, SVG Export Plug-In . SVG Version: 6.00 Build 0)  -->
<svg version="1.1" id="Layer_1" xmlns="http://www.w3.org/2000/svg" xmlns:xlink="http://www.w3.org/1999/xlink" x="0px" y="0px"
	 viewBox="6 176.8 624 441.2" enable-background="new 6 176.8 624 441.2" xml:space="preserve">
<g>
	<g>
		<rect x="102.9" y="411.1" width="42" height="0.6"/>
	</g>
	<rect x="236.8" y="411.1" width="26" height="0.6"/>
	<rect x="372.7" y="411.1" width="24" height="0.6"/>
	<g>
		<rect x="489.6" y="411.1" width="43.1" height="0.6"/>
		<rect x="102.9" y="426.3" width="42" height="0.6"/>
		<rect x="236.8" y="426.3" width="26" height="0.6"/>
		<rect x="372.7" y="426.3" width="24" height="0.6"/>
		<rect x="489.6" y="426.3" width="43.1" height="0.6"/>
		<rect x="102.9" y="418.7" width="42" height="0.6"/>
	</g>
	<rect x="236.8" y="418.7" width="26" height="0.6"/>
	<rect x="372.7" y="418.7" width="24" height="0.6"/>
	<g>
		<rect x="489.6" y="418.7" width="43.1" height="0.6"/>
		<path d="M523.8,387.7v2.6h5.9c-0.1,3.7-3.9,6.8-7.5,6.8c-4.9,0-8.9-4.5-8.9-9.3c0-5.1,4-9.3,9.1-9.3c2.8,0,5.5,1.5,7.2,3.7l2-1.9
			c-2.2-2.8-5.7-4.4-9.3-4.4c-6.6,0-11.8,5.4-11.8,11.9c0,6.3,5.1,11.8,11.5,11.8s10.8-4.8,10.8-11.1v-0.9L523.8,387.7L523.8,387.7z
			 M479.1,399.2h2.8v-17l17.1,17.9v-23.7h-2.8v16.8l-17.1-17.9V399.2z M461.7,390.8h-8.1l4.1-9.2L461.7,390.8z M462.9,393.4l2.6,5.7
			h3.1l-10.9-23.8l-10.9,23.8h3.1l2.6-5.7H462.9z M438.3,379v-2.6h-11v22.8h2.8V388h7.9v-2.6h-7.9V379H438.3z M408.7,376.4h-2.8
			v22.8h9.8v-2.6h-6.9V376.4z M388.2,390.8h-8.1l4.1-9.2L388.2,390.8z M389.3,393.4l2.6,5.7h3.1l-10.9-23.8l-10.9,23.8h3.1l2.6-5.7
			H389.3z M349.3,385.6v-9.2h-2.8v22.8h2.8v-11h10.9v11h2.8v-22.8h-2.8v9.2H349.3z M330.2,379h5.4v-2.6h-13.7v2.6h5.4v20.2h2.8V379z
			 M292.9,379v-2.6h-11v22.8h2.8V388h7.9v-2.6h-7.9V379H292.9z M258.4,397c-4.9,0-9.1-4-9.1-9.2c0-5,3.8-9.2,9.1-9.2
			c5.4,0,9.1,4.2,9.1,9.2C267.5,393,263.3,397,258.4,397 M258.4,375.9c-6.5,0-11.9,5.4-11.9,11.9c0,6.8,5.4,11.9,11.9,11.9
			c6.6,0,11.9-5.1,11.9-11.9C270.4,381.2,265,375.9,258.4,375.9 M221.9,385.6v-9.2h-2.8v22.8h2.8v-11h10.9v11h2.8v-22.8h-2.8v9.2
			H221.9z M185.8,399.2h2.8v-17l17.1,17.9v-23.7h-2.8v16.8l-17.1-17.9V399.2z M158.7,385.6v-9.2h-2.8v22.8h2.8v-11h10.9v11h2.8
			v-22.8h-2.8v9.2H158.7z M139.2,390.8h-8.1l4.1-9.2L139.2,390.8z M140.4,393.4l2.6,5.7h3.1l-10.9-23.8l-10.9,23.8h3.1l2.6-5.7
			H140.4z M103,399.2h5.3c4,0,7.9-1.8,7.9-6.4c0-2.7-1.9-5.3-4.6-5.8v-0.1c1.5-0.7,2.4-2.7,2.4-4.3c0-5.1-4.1-6.3-8.3-6.3H103V399.2
			z M105.8,388.7h1.8c2.5,0,5.8,0.7,5.8,3.9c0,3.2-2.8,4-5.4,4h-2.2C105.8,396.6,105.8,388.7,105.8,388.7z M105.8,378.9h0.8
			c2.7,0,4.8,0.5,4.8,3.8c0,3.3-2.2,3.8-4.9,3.8h-0.7C105.8,386.5,105.8,378.9,105.8,378.9z"/>
		<path d="M479.1,411.1h-2.8v15.8h2.8V411.1z M463.4,420.7h-2.3v-1.9c0-0.7,0.4-0.9,1.1-0.9c0.8,0,1.2,0.2,1.2,1.1L463.4,420.7
			L463.4,420.7z M465.9,422.5v-4.4c0-0.6,0-1.1-0.4-1.5c-0.6-0.6-1.9-0.6-2.6-0.6H462c-0.6,0-1.1,0-1.7,0.1
			c-1.5,0.2-1.7,0.9-1.7,2.3v5.8c0,0.6,0,1.2,0.3,1.7c0.6,1.1,2.4,1.2,3.6,1.2s2.2-0.2,3.4-0.5V424c-0.8,0.6-1.8,0.7-2.8,0.7
			c-1.1,0-1.9-0.1-1.9-1.5v-0.8L465.9,422.5L465.9,422.5z M449.1,424.3c-0.3,0.3-0.6,0.4-1.1,0.4c-0.7,0-0.9-0.4-0.9-1.1v-5.6h1.8
			v-2h-1.8v-2.6h-2.7v2.6h-1.1v2h1.1v6.2c0,2,0.4,2.7,2.5,2.7c0.7,0,1.4-0.1,2.1-0.3L449.1,424.3z M431.1,423.8
			c0,0.9-0.5,1.1-1.3,1.1c-0.8,0-1.3-0.1-1.3-1.1v-4.5c0-1,0.4-1.2,1.3-1.2c1,0,1.4,0.2,1.4,1.2V423.8z M433.8,424.4v-5.8
			c0-0.5,0-1-0.3-1.5c-0.7-1.1-2.6-1.2-3.7-1.2c-1.2,0-3.3,0-3.9,1.4c-0.2,0.4-0.2,1-0.2,1.4v5.6c0,2.7,2.2,2.7,4.3,2.7
			c1,0,2.4,0,3.2-0.8C433.7,425.8,433.8,425.2,433.8,424.4 M415.2,426.9v-8.3c0-1.9-0.8-2.6-2.6-2.6c-1.5,0-1.9,0.4-2.6,1.7
			c0.1-2.2,0.1-4.4,0.1-6.6h-2.8v15.8h2.8v-7.3c0-1,0.3-1.2,1.3-1.2c0.9,0,1.1,0.3,1.1,1.2v7.3H415.2z M362.2,416.1
			c-0.2,0-0.4-0.1-0.7-0.1c-1.2,0-1.8,0.8-2.3,1.8v-1.7h-2.7v10.7h2.7v-6.6c0-1,0.4-1.5,1.4-1.5c0.6,0,1.1,0.2,1.5,0.6L362.2,416.1z
			 M346,424.6v-8.4h-2.7v7.1c0,1-0.2,1.4-1.3,1.4c-1.2,0-1.3-0.5-1.3-1.5v-6.9H338v8.1c0,2.6,1.4,2.8,3.3,2.8h1.2
			C344.3,427.1,346,426.9,346,424.6 M328.4,424.3c-0.3,0.3-0.6,0.4-1.1,0.4c-0.7,0-0.9-0.4-0.9-1.1v-5.6h1.8v-2h-1.8v-2.6h-2.7v2.6
			h-1.1v2h1.1v6.2c0,2,0.4,2.7,2.5,2.7c0.7,0,1.4-0.1,2.1-0.3L328.4,424.3z M313.1,411.1h-2.8v15.8h2.8V411.1z M299.7,424.6v-8.4
			H297v7.1c0,1-0.2,1.4-1.3,1.4c-1.2,0-1.3-0.5-1.3-1.5v-6.9h-2.7v8.1c0,2.6,1.4,2.8,3.3,2.8h1.2
			C298.1,427.1,299.7,426.9,299.7,424.6 M282.4,426.9l-3.7-6.2l2.8-4.4h-3.1l-2.4,4.1v-9.2h-2.7v15.8h2.7v-5.8l3.3,5.8H282.4z
			 M226.3,411.1h-2.8v15.8h2.8V411.1z M210.5,423.7c0,0.8-0.2,1.3-1,1.3c-1.1,0-1.2-0.3-1.2-1.4v-0.3c0-1,0.2-1.4,1.2-1.4
			c0.9,0,1,0.5,1,1.2V423.7z M213,426.9v-8c0-0.5,0-1.1-0.3-1.6c-0.7-1.3-2.6-1.4-3.9-1.4c-1,0-2,0.1-2.9,0.3v2.3
			c0.8-0.3,1.5-0.5,2.4-0.5c0.5,0,1.4,0.1,1.8,0.4c0.4,0.3,0.5,0.7,0.5,1.2v1.3c-0.6-0.5-1.2-0.6-2-0.6c-2.4,0-2.8,0.9-2.8,3v1.1
			c0,1.5,0.2,2.6,2.3,2.6c1.4,0,1.8-0.3,2.6-1.4v1.3L213,426.9L213,426.9z M196.4,426.9l-3.7-6.2l2.8-4.4h-3.1l-2.4,4.1v-9.2h-2.7
			v15.8h2.7v-5.8l3.3,5.8H196.4z M174.1,423.8c0,0.9-0.5,1.1-1.3,1.1c-0.8,0-1.3-0.1-1.3-1.1v-4.5c0-1,0.4-1.2,1.3-1.2
			c1,0,1.4,0.2,1.4,1.2V423.8z M176.8,424.4v-5.8c0-0.5,0-1-0.3-1.5c-0.7-1.1-2.6-1.2-3.7-1.2c-1.2,0-3.3,0-3.9,1.4
			c-0.2,0.4-0.2,1-0.2,1.4v5.6c0,2.7,2.2,2.7,4.3,2.7c1,0,2.4,0,3.2-0.8C176.8,425.8,176.8,425.2,176.8,424.4 M158.3,411.1h-2.8
			v15.8h2.8V411.1z"/>
	</g>
</g>
</svg>
